<?xml version="1.0" encoding="UTF-8" standalone="no"?>
<!-- Created with Inkscape (http://www.inkscape.org/) -->

<svg
   xmlns:dc="http://purl.org/dc/elements/1.1/"
   xmlns:cc="http://creativecommons.org/ns#"
   xmlns:rdf="http://www.w3.org/1999/02/22-rdf-syntax-ns#"
   xmlns:svg="http://www.w3.org/2000/svg"
   xmlns="http://www.w3.org/2000/svg"
   xmlns:sodipodi="http://sodipodi.sourceforge.net/DTD/sodipodi-0.dtd"
   xmlns:inkscape="http://www.inkscape.org/namespaces/inkscape"
   width="210mm"
   height="297mm"
   viewBox="0 0 210 297"
   version="1.1"
   id="svg8"
   inkscape:version="0.92.1 15371"
   sodipodi:docname="omletee.svg">
  <defs
     id="defs2" />
  <sodipodi:namedview
     id="base"
     pagecolor="#ffffff"
     bordercolor="#666666"
     borderopacity="1.0"
     inkscape:pageopacity="0.0"
     inkscape:pageshadow="2"
     inkscape:zoom="0.35"
     inkscape:cx="363.60726"
     inkscape:cy="394.86141"
     inkscape:document-units="mm"
     inkscape:current-layer="layer1"
     showgrid="false"
     inkscape:snap-global="false"
     inkscape:window-width="1366"
     inkscape:window-height="716"
     inkscape:window-x="0"
     inkscape:window-y="24"
     inkscape:window-maximized="1" />
  <metadata
     id="metadata5">
    <rdf:RDF>
      <cc:Work
         rdf:about="">
        <dc:format>image/svg+xml</dc:format>
        <dc:type
           rdf:resource="http://purl.org/dc/dcmitype/StillImage" />
        <dc:title />
      </cc:Work>
    </rdf:RDF>
  </metadata>
  <g
     inkscape:label="Layer 1"
     inkscape:groupmode="layer"
     id="layer1">
    <path
       style="fill:#cccccc;stroke:#000000;stroke-width:1.94748986;stroke-linecap:butt;stroke-linejoin:miter;stroke-miterlimit:4;stroke-dasharray:none;stroke-opacity:1"
       d="M 116.04497,89.27107 74.265404,86.933157 C 35.223445,82.395729 7.2567268,112.16578 52.276156,111.35139 c 21.073561,4.93089 19.146057,-8.04317 39.580646,-3.89653 40.703448,8.91363 78.428298,-9.611426 81.360208,-4.15629 1.46595,0 -5.13081,1.03907 -24.92115,5.19536 0.22207,-0.01 -17.5914,0.77931 24.92115,-5.19536 0.55286,-0.14694 -19.64993,4.02253 -19.05735,3.89652 0.66252,-0.14088 18.39483,-3.75564 19.05735,-3.89652 0.59258,-0.126 -15.94531,3.26417 -15.39247,3.11721 0.43706,-0.11616 0.99747,-0.16015 1.46595,-0.25976 4.94239,-1.05097 -0.47915,-0.0879 4.39783,-0.77929 0.50728,-0.0719 0.97731,-0.1732 1.46596,-0.25978 0.48867,-0.0866 1.02891,-0.14361 1.46595,-0.25977 0.55286,-0.14696 0.89097,-0.38368 1.46597,-0.51954 0.2033,-0.0481 0.51443,0.0387 0.73296,0 3.05047,-0.54055 -0.78356,0.0179 0.73298,-0.51954 0.17276,-0.0612 0.56021,0.0612 0.73298,0 0.17276,-0.0612 -0.17277,-0.19853 0,-0.25977 0.3455,-0.12245 1.12041,0.12246 1.46595,0 0.17277,-0.0612 -0.17277,-0.19853 0,-0.25976 0.17277,-0.0612 0.48863,0 0.73297,0 h 0.73297 l 28.58602,-8.312591 c -1.46593,0 -2.98831,0.142732 -4.39786,0 -0.5253,-0.05317 -0.39168,-0.368339 -0.73295,-0.519532 -1.95602,-0.866529 -2.88127,-0.743421 -4.39787,-1.818381 -0.45052,-0.319327 -0.41439,-0.700377 -0.73297,-1.039073 -0.54855,-0.58322 -1.36255,-0.706025 -2.19893,-1.29884 -1.06612,-0.75568 -0.52655,-0.986085 -1.46594,-1.818381 -0.25665,-0.227393 -1.15691,-0.300487 -1.46595,-0.519542 -0.21853,-0.154894 0.34552,-0.397076 0,-0.519532 -0.17276,-0.06119 -0.56022,0.0612 -0.73298,0 -0.17276,-0.06119 0,-0.173177 0,-0.259765 v -0.259776 c -7.05923,-12.272343 -19.23031,-1.541374 -30.05197,3.117221 z"
       id="path4489"
       inkscape:connector-curvature="0"
       sodipodi:nodetypes="cccccccccccsccccccsssscccccccccccsccc"
       inkscape:export-filename="/home/pintu/ommlete.png"
       inkscape:export-xdpi="64"
       inkscape:export-ydpi="64" />
    <path
       sodipodi:nodetypes="cccccccccccsccccccsssscccccccccccsccc"
       inkscape:connector-curvature="0"
       id="path4497"
       d="M 117.61844,88.758461 77.872554,86.847229 C 40.731019,83.137899 14.12562,107.47475 56.953666,106.80899 c 20.047771,4.03098 18.214093,-6.57524 37.653998,-3.18538 38.722156,7.28683 74.610696,-7.857294 77.399886,-3.39774 1.39457,0 -4.88107,0.84942 -23.70809,4.24717 0.21127,-0.009 -16.73509,0.63708 23.70809,-4.24717 0.52594,-0.12014 -18.69344,3.28839 -18.12971,3.18538 0.63027,-0.11518 17.49943,-3.07022 18.12971,-3.18538 0.56373,-0.10302 -15.16916,2.66842 -14.64322,2.54829 0.41579,-0.095 0.94893,-0.13091 1.39458,-0.21236 4.7018,-0.85915 -0.45581,-0.0719 4.18379,-0.63707 0.48256,-0.0587 0.92973,-0.14158 1.39459,-0.21237 0.46486,-0.0708 0.9788,-0.11738 1.39458,-0.21236 0.52596,-0.12012 0.8476,-0.31365 1.39461,-0.42471 0.1934,-0.0393 0.4894,0.0317 0.6973,0 2.90198,-0.4419 -0.74544,0.0146 0.69728,-0.42472 0.16436,-0.0501 0.53296,0.0501 0.69731,0 0.16437,-0.0501 -0.16435,-0.16231 0,-0.21235 0.32869,-0.1001 1.06588,0.10011 1.3946,0 0.16435,-0.0501 -0.16438,-0.16231 0,-0.21235 0.16435,-0.0501 0.46485,0 0.69727,0 h 0.69731 l 25.0564,-5.191896 c -1.3946,0 -0.7047,-1.486931 -2.04564,-1.603617 -0.49971,-0.04344 -0.37262,-0.301119 -0.69727,-0.424718 -1.8608,-0.708375 -2.74103,-0.607735 -4.18379,-1.486512 -0.4286,-0.26105 -0.39423,-0.572558 -0.69728,-0.849436 -0.52184,-0.47678 -1.29626,-0.577166 -2.09191,-1.061794 -1.01423,-0.617766 -0.50093,-0.806119 -1.39459,-1.486514 -0.24414,-0.185898 -1.10058,-0.245647 -1.3946,-0.424718 -0.20788,-0.126629 0.3287,-0.324615 0,-0.424718 -0.16434,-0.05006 -0.53295,0.05006 -0.6973,0 -0.16433,-0.05006 0,-0.141579 0,-0.212368 V 86.84722 c -7.72738,-9.964581 -19.02686,1.503429 -28.58915,2.548317 z"
       style="fill:#ffffff;stroke:#000000;stroke-width:0;stroke-linecap:butt;stroke-linejoin:miter;stroke-miterlimit:4;stroke-dasharray:none;stroke-opacity:1"
       inkscape:export-filename="/home/pintu/ommlete.png"
       inkscape:export-xdpi="64"
       inkscape:export-ydpi="64" />
    <ellipse
       style="opacity:1;fill:#d4aa00;fill-opacity:1;stroke:#000000;stroke-width:1.54877031;stroke-linecap:round;stroke-linejoin:round;stroke-miterlimit:4;stroke-dasharray:none"
       id="path4491"
       cx="126.51786"
       cy="87.588249"
       rx="37.615101"
       ry="13.578962"
       inkscape:export-filename="/home/pintu/ommlete.png"
       inkscape:export-xdpi="64"
       inkscape:export-ydpi="64" />
    <path
       style="opacity:1;fill:#ffd100;fill-opacity:1;stroke:#000000;stroke-width:0;stroke-linecap:round;stroke-linejoin:round;stroke-miterlimit:4;stroke-dasharray:none"
       d="m 164.13294,87.588254 c 0,7.499454 -16.74696,12.817076 -37.23782,10.46487 C 107.56814,95.834531 93.094824,93.321359 92.298224,87.328746 91.305464,79.860444 105.7436,74.009289 126.51785,74.009289 c 20.77423,10e-7 37.61509,6.07951 37.61509,13.578965 z"
       id="ellipse4493"
       inkscape:connector-curvature="0"
       sodipodi:nodetypes="sssss"
       inkscape:export-filename="/home/pintu/ommlete.png"
       inkscape:export-xdpi="64"
       inkscape:export-ydpi="64" />
    <path
       style="opacity:1;fill:#cccccc;fill-opacity:1;stroke:#000000;stroke-width:1.32291663;stroke-linecap:round;stroke-linejoin:round;stroke-miterlimit:4;stroke-dasharray:none;stroke-opacity:1"
       d="m 13.607141,91.380955 c 1.52802,8.781275 -25.38043,17.329005 -86.178572,19.654755 -42.968759,1.64371 -124.671699,45.64226 -86.178569,-19.654755 -2e-5,-10.85503 50.78551,-51.47657 86.178569,-19.65477 34.140922,30.696005 91.151942,-22.30175 86.178572,19.65477 z"
       id="path5910"
       inkscape:connector-curvature="0"
       sodipodi:nodetypes="cscsc"
       inkscape:export-xdpi="64"
       inkscape:export-ydpi="64" />
    <path
       sodipodi:nodetypes="cscsc"
       inkscape:connector-curvature="0"
       id="path5913"
       d="m 13.665751,90.134765 c 1.15118,3.75979 -47.56738,20.085695 -83.039251,19.680955 -38.42166,-0.43839 -118.12575,23.9476 -83.7952,-23.460715 -2e-5,-11.046 50.66563,-42.76122 84.551152,-11.3655 29.313089,27.159255 83.594449,-24.05977 82.283299,15.14526 z"
       style="opacity:1;fill:#ffffff;fill-opacity:1;stroke:#000000;stroke-width:0;stroke-linecap:round;stroke-linejoin:round;stroke-miterlimit:4;stroke-dasharray:none;stroke-opacity:1"
       inkscape:export-xdpi="64"
       inkscape:export-ydpi="64" />
    <ellipse
       inkscape:export-ydpi="64"
       inkscape:export-xdpi="64"
       inkscape:export-filename="/home/pintu/ommlete.png"
       ry="13.578962"
       rx="37.615101"
       cy="77.004913"
       cx="-44.327381"
       id="ellipse5915"
       style="opacity:1;fill:#d4aa00;fill-opacity:1;stroke:#000000;stroke-width:1.54877031;stroke-linecap:round;stroke-linejoin:round;stroke-miterlimit:4;stroke-dasharray:none" />
    <path
       inkscape:export-ydpi="64"
       inkscape:export-xdpi="64"
       inkscape:export-filename="/home/pintu/ommlete.png"
       sodipodi:nodetypes="sssss"
       inkscape:connector-curvature="0"
       id="path5917"
       d="m -6.712299,77.004925 c 0,7.49945 -16.74696,12.81707 -37.23782,10.46487 -19.32698,-2.2186 -33.800298,-4.73177 -34.596898,-10.72438 -0.99276,-7.4683 13.445376,-13.31946 34.219628,-13.31946 20.77423,0 37.61509,6.07951 37.61509,13.57897 z"
       style="opacity:1;fill:#ffd100;fill-opacity:1;stroke:#000000;stroke-width:0;stroke-linecap:round;stroke-linejoin:round;stroke-miterlimit:4;stroke-dasharray:none" />
    <path
       style="opacity:1;fill:#cccccc;fill-opacity:1;stroke:#000000;stroke-width:1.32291663;stroke-linecap:round;stroke-linejoin:round;stroke-miterlimit:4;stroke-dasharray:none;stroke-opacity:1"
       d="m 107.34524,187.00893 c -0.25107,6.26204 -29.472638,-4.30249 -39.309527,11.71726 -17.131725,27.89967 -75.0693385,36.47379 -39.309524,-11.71726 3.856242,-5.19679 17.599475,-11.71726 39.309524,-11.71726 21.710051,0 39.568787,5.25119 39.309527,11.71726 z"
       id="path5919"
       inkscape:connector-curvature="0"
       sodipodi:nodetypes="sssss"
       inkscape:export-xdpi="64"
       inkscape:export-ydpi="64" />
    <path
       sodipodi:nodetypes="sssss"
       inkscape:connector-curvature="0"
       id="path5924"
       d="m 104.32173,186.0242 c -0.22367,4.92778 -26.256691,-3.38575 -35.020215,9.22063 -15.262377,21.955 -66.8780578,28.70221 -35.020219,-9.22063 3.435464,-4.08949 15.679088,-9.22062 35.020219,-9.22062 19.341132,0 35.251195,4.1323 35.020215,9.22062 z"
       style="opacity:1;fill:#ffffff;fill-opacity:1;stroke:#000000;stroke-width:0;stroke-linecap:round;stroke-linejoin:round;stroke-miterlimit:4;stroke-dasharray:none;stroke-opacity:1"
       inkscape:export-xdpi="64"
       inkscape:export-ydpi="64" />
    <path
       sodipodi:nodetypes="sssss"
       inkscape:connector-curvature="0"
       id="path5926"
       d="m 116.19848,175.72535 c 0.25132,1.85242 10.31802,-2.18892 14.21463,2.26587 6.78629,7.75836 27.51139,8.51485 13.6067,-4.69552 -1.49944,-1.42458 -6.53199,-2.9368 -14.21464,-2.26587 -7.68264,0.67093 -13.86617,2.78274 -13.60669,4.69552 z"
       style="opacity:1;fill:#cccccc;fill-opacity:1;stroke:#000000;stroke-width:1.32291663;stroke-linecap:round;stroke-linejoin:round;stroke-miterlimit:4;stroke-dasharray:none;stroke-opacity:1"
       inkscape:export-xdpi="64"
       inkscape:export-ydpi="64" />
    <path
       style="opacity:1;fill:#ffffff;fill-opacity:1;stroke:#000000;stroke-width:0;stroke-linecap:round;stroke-linejoin:round;stroke-miterlimit:4;stroke-dasharray:none;stroke-opacity:1"
       d="m 117.24288,175.33939 c 0.20703,1.45691 9.20376,-1.81721 12.63199,1.65678 5.97053,6.05022 24.41108,6.45939 12.15357,-3.82133 -1.32181,-1.10863 -5.78764,-2.25449 -12.63198,-1.65677 -6.84434,0.59772 -12.36732,2.31693 -12.15358,3.82132 z"
       id="path5928"
       inkscape:connector-curvature="0"
       sodipodi:nodetypes="sssss"
       inkscape:export-xdpi="64"
       inkscape:export-ydpi="64" />
  </g>
</svg>
